<svg width="12" height="11" viewBox="0 0 12 11" fill="none" xmlns="http://www.w3.org/2000/svg">
    <path d="M4.78125 10.9299C4.41667 10.9299 4.10938 10.7763 3.85938 10.469L0.679688 6.50806C0.580729 6.38826 0.510417 6.27368 0.46875 6.16431C0.427083 6.04972 0.40625 5.93254 0.40625 5.81274C0.40625 5.54712 0.494792 5.32837 0.671875 5.15649C0.848958 4.97941 1.07552 4.89087 1.35156 4.89087C1.65885 4.89087 1.91667 5.02368 2.125 5.28931L4.75 8.66431L9.82812 0.586182C9.94792 0.409098 10.0703 0.284098 10.1953 0.211182C10.3203 0.133057 10.4766 0.0939941 10.6641 0.0939941C10.9349 0.0939941 11.1562 0.179932 11.3281 0.351807C11.5052 0.518473 11.5938 0.734619 11.5938 1.00024C11.5938 1.10441 11.5755 1.21118 11.5391 1.32056C11.5078 1.42993 11.4531 1.54451 11.375 1.66431L5.70312 10.4456C5.48438 10.7685 5.17708 10.9299 4.78125 10.9299Z"
          fill="currentColor"/>
</svg>
