<svg width="32" height="32" viewBox="0 0 32 32" fill="none" xmlns="http://www.w3.org/2000/svg">
<g filter="url(#filter0_i_402_9731)">
<rect width="32" height="32" rx="6" fill="#9B0583"/>
<path d="M22.0001 11.16C21.9401 11.15 21.8701 11.15 21.8101 11.16C20.4301 11.11 19.3301 9.98 19.3301 8.58C19.3301 7.15 20.4801 6 21.9101 6C23.3401 6 24.4901 7.16 24.4901 8.58C24.4801 9.98 23.3801 11.11 22.0001 11.16Z" stroke="white" stroke-width="1.5" stroke-linecap="round" stroke-linejoin="round"/>
<path d="M20.9704 18.44C22.3404 18.67 23.8504 18.43 24.9104 17.72C26.3204 16.78 26.3204 15.24 24.9104 14.3C23.8404 13.59 22.3104 13.35 20.9404 13.59" stroke="white" stroke-width="1.5" stroke-linecap="round" stroke-linejoin="round"/>
<path d="M9.97047 11.16C10.0305 11.15 10.1005 11.15 10.1605 11.16C11.5405 11.11 12.6405 9.98 12.6405 8.58C12.6405 7.15 11.4905 6 10.0605 6C8.63047 6 7.48047 7.16 7.48047 8.58C7.49047 9.98 8.59047 11.11 9.97047 11.16Z" stroke="white" stroke-width="1.5" stroke-linecap="round" stroke-linejoin="round"/>
<path d="M11.0004 18.44C9.63043 18.67 8.12043 18.43 7.06043 17.72C5.65043 16.78 5.65043 15.24 7.06043 14.3C8.13043 13.59 9.66043 13.35 11.0304 13.59" stroke="white" stroke-width="1.5" stroke-linecap="round" stroke-linejoin="round"/>
<path d="M16.0001 18.63C15.9401 18.62 15.8701 18.62 15.8101 18.63C14.4301 18.58 13.3301 17.45 13.3301 16.05C13.3301 14.62 14.4801 13.47 15.9101 13.47C17.3401 13.47 18.4901 14.63 18.4901 16.05C18.4801 17.45 17.3801 18.59 16.0001 18.63Z" stroke="white" stroke-width="1.5" stroke-linecap="round" stroke-linejoin="round"/>
<path d="M13.0897 21.78C11.6797 22.72 11.6797 24.26 13.0897 25.2C14.6897 26.27 17.3097 26.27 18.9097 25.2C20.3197 24.26 20.3197 22.72 18.9097 21.78C17.3197 20.72 14.6897 20.72 13.0897 21.78Z" stroke="white" stroke-width="1.5" stroke-linecap="round" stroke-linejoin="round"/>
</g>
<defs>
<filter id="filter0_i_402_9731" x="0" y="0" width="32" height="32" filterUnits="userSpaceOnUse" color-interpolation-filters="sRGB">
<feFlood flood-opacity="0" result="BackgroundImageFix"/>
<feBlend mode="normal" in="SourceGraphic" in2="BackgroundImageFix" result="shape"/>
<feColorMatrix in="SourceAlpha" type="matrix" values="0 0 0 0 0 0 0 0 0 0 0 0 0 0 0 0 0 0 127 0" result="hardAlpha"/>
<feOffset/>
<feGaussianBlur stdDeviation="4"/>
<feComposite in2="hardAlpha" operator="arithmetic" k2="-1" k3="1"/>
<feColorMatrix type="matrix" values="0 0 0 0 0 0 0 0 0 0 0 0 0 0 0 0 0 0 0.25 0"/>
<feBlend mode="normal" in2="shape" result="effect1_innerShadow_402_9731"/>
</filter>
</defs>
</svg>
