<svg width="32" height="32" viewBox="0 0 32 32" fill="none" xmlns="http://www.w3.org/2000/svg">
<path d="M8.14648 23.3333C5.19982 20.5733 2.6665 16.64 2.6665 11.5733C2.6665 7.45331 5.9865 4.12003 10.0798 4.12003C12.5065 4.12003 14.6532 5.29335 15.9998 7.10668C17.3465 5.29335 19.5065 4.12003 21.9198 4.12003C23.4532 4.12003 24.8798 4.58664 26.0665 5.39997" stroke="#747474" stroke-width="1.5" stroke-linecap="round" stroke-linejoin="round"/>
<path d="M28.9863 9.33331C29.213 10.04 29.333 10.8 29.333 11.5866C29.333 20.92 20.693 26.4267 16.8263 27.76C16.373 27.92 15.6263 27.92 15.173 27.76C14.3063 27.4667 13.213 26.96 12.0264 26.2533" stroke="#747474" stroke-width="1.5" stroke-linecap="round" stroke-linejoin="round"/>
<path d="M29.3332 2.66666L2.6665 29.3333" stroke="#747474" stroke-width="1.5" stroke-linecap="round" stroke-linejoin="round"/>
</svg>
