<svg width="100%" height="100%" viewBox="0 0 14 14" fill="none" xmlns="http://www.w3.org/2000/svg">
    <path d="M5.34349 6.34085C5.28516 6.33502 5.21516 6.33502 5.15099 6.34085C3.76266 6.29419 2.66016 5.15669 2.66016 3.75669C2.66016 2.32752 3.81516 1.16669 5.25016 1.16669C6.67932 1.16669 7.84016 2.32752 7.84016 3.75669C7.83432 5.15669 6.73182 6.29419 5.34349 6.34085Z"
          stroke="currentColor" stroke-linecap="round" stroke-linejoin="round"/>
    <path d="M9.5729 2.33331C10.7046 2.33331 11.6146 3.24915 11.6146 4.37498C11.6146 5.47748 10.7396 6.37581 9.64874 6.41665C9.60207 6.41081 9.54957 6.41081 9.49707 6.41665"
          stroke="currentColor" stroke-linecap="round" stroke-linejoin="round"/>
    <path d="M2.42691 8.49331C1.01525 9.43831 1.01525 10.9783 2.42691 11.9175C4.03108 12.9908 6.66191 12.9908 8.26608 11.9175C9.67775 10.9725 9.67775 9.43248 8.26608 8.49331C6.66775 7.42581 4.03691 7.42581 2.42691 8.49331Z"
          stroke="currentColor" stroke-linecap="round" stroke-linejoin="round"/>
    <path d="M10.6982 11.6667C11.1182 11.5792 11.5149 11.41 11.8416 11.1592C12.7516 10.4767 12.7516 9.35085 11.8416 8.66835C11.5207 8.42335 11.1299 8.26002 10.7157 8.16669"
          stroke="currentColor" stroke-linecap="round" stroke-linejoin="round"/>
</svg>
