<svg width="150" height="57" viewBox="0 0 150 57" fill="currentColor" xmlns="http://www.w3.org/2000/svg">
    <path d="M138.209 49.2263C130.458 49.2263 125.756 44.1781 125.756 36.049V36.0252C125.756 27.9435 130.506 22.7768 137.925 22.7768C145.345 22.7768 150 27.825 150 35.5038V37.6369H132.561C132.632 41.6896 134.83 44.0596 138.351 44.0596C141.186 44.0596 142.911 42.4954 143.407 41.0734L143.455 40.9312H149.787L149.716 41.1919C148.937 44.9366 145.44 49.2263 138.209 49.2263ZM138.043 27.9435C135.208 27.9435 133.081 29.8395 132.632 33.276H143.384C142.958 29.7684 140.903 27.9435 138.043 27.9435Z"
          fill="currentColor"/>
    <path d="M109.901 48.7049V23.2982H116.801V27.7302H116.942C117.699 24.6017 119.754 22.7768 122.708 22.7768C123.464 22.7768 124.173 22.8953 124.693 23.0375V29.1285C124.126 28.8915 123.181 28.7493 122.188 28.7493C118.785 28.7493 116.801 30.7875 116.801 34.4847V48.7049H109.901Z"
          fill="currentColor"/>
    <path d="M94.5416 49.2263C86.7911 49.2263 82.0888 44.1781 82.0888 36.049V36.0252C82.0888 27.9435 86.8384 22.7768 94.258 22.7768C101.678 22.7768 106.333 27.825 106.333 35.5038V37.6369H88.8941C88.965 41.6896 91.1625 44.0596 94.6833 44.0596C97.5189 44.0596 99.2438 42.4954 99.7401 41.0734L99.7873 40.9312H106.12L106.049 41.1919C105.269 44.9366 101.772 49.2263 94.5416 49.2263ZM94.3762 27.9435C91.5406 27.9435 89.414 29.8395 88.965 33.276H99.7164C99.2911 29.7684 97.2353 27.9435 94.3762 27.9435Z"
          fill="currentColor"/>
    <path d="M57.0416 48.7049L54.8676 14.5054H60.5702L58.8059 21.4022L59.562 29.2391H59.7038C61.0034 26.087 65.879 22.7768 69.6833 22.7768C75.1654 22.7768 78.568 26.6163 78.568 32.7547V48.7049H71.6682V34.1767C71.6682 30.6216 69.9196 28.5123 66.7769 28.5123C63.3428 28.5123 60.0661 31.7355 60.0661 35.0536L61.7675 48.7049H57.0416Z"
          fill="currentColor"/>
    <path d="M25.9689 57V23.2982H32.8687V27.7302H33.0341C34.4046 24.6491 37.1692 22.7768 40.7609 22.7768C47.1881 22.7768 51.1106 27.7065 51.1106 35.9779V36.0015C51.1106 44.2492 47.1881 49.2263 40.8554 49.2263C37.2401 49.2263 34.381 47.3777 33.0105 44.3678H32.8687V57H25.9689ZM38.4925 43.4908C41.9188 43.4908 44.0927 40.6231 44.0927 36.0015V35.9779C44.0927 31.3326 41.9188 28.5123 38.4925 28.5123C35.1371 28.5123 32.845 31.4037 32.845 36.0015V36.0252C32.845 40.5994 35.1371 43.4908 38.4925 43.4908Z"
          fill="currentColor"/>
    <path d="M11.4839 49.2263C4.46597 49.2263 0.567108 45.9794 0.0236295 41.1682L0 40.9549H6.7344L6.78166 41.1682C7.23062 43.159 8.71928 44.3203 11.4839 44.3203C14.0832 44.3203 15.6663 43.3012 15.6663 41.6659V41.6422C15.6663 40.2913 14.8157 39.5092 12.3346 38.9641L8.03403 38.0635C3.11909 37.0207 0.637996 34.5558 0.637996 30.7638V30.7401C0.637996 25.9052 4.79679 22.7768 11.2476 22.7768C17.982 22.7768 21.7391 26.3555 21.9045 30.8112V31.0482H15.5482L15.5246 30.8586C15.2883 29.0337 13.7996 27.659 11.2476 27.659C8.86106 27.659 7.3724 28.7256 7.3724 30.3609V30.3846C7.3724 31.6881 8.24669 32.5413 10.7987 33.0864L15.0992 34.0107C20.3922 35.1246 22.5662 37.2103 22.5662 40.9549V40.9786C22.5662 45.9557 18.0057 49.2263 11.4839 49.2263Z"
          fill="currentColor"/>
    <path fill-rule="evenodd" clip-rule="evenodd"
          d="M59.8923 26.1629C59.4525 34.129 60.6671 41.3919 63.847 48.705L56.184 48.705C53.2608 39.8569 52.256 35.023 52.7567 25.9528C53.2575 16.8825 55.9592 7.87487 60.4743 0L66.5922 3.52877C62.6267 10.445 60.3321 18.1969 59.8923 26.1629Z"
          fill="currentColor"/>
</svg>
