<svg width="25" height="24" viewBox="0 0 25 24" fill="none" xmlns="http://www.w3.org/2000/svg">
    <path d="M19.1368 16.83L19.5268 19.99C19.6268 20.82 18.7368 21.4 18.0268 20.97L13.8368 18.48C13.3768 18.48 12.9268 18.45 12.4868 18.39C13.2268 17.52 13.6668 16.42 13.6668 15.23C13.6668 12.39 11.2068 10.09 8.16684 10.09C7.00684 10.09 5.93684 10.42 5.04684 11C5.01684 10.75 5.00684 10.5 5.00684 10.24C5.00684 5.68999 8.95684 2 13.8368 2C18.7168 2 22.6668 5.68999 22.6668 10.24C22.6668 12.94 21.2768 15.33 19.1368 16.83Z"
          stroke="currentColor" stroke-width="1.5" stroke-linecap="round" stroke-linejoin="round"/>
    <path d="M13.667 15.23C13.667 16.42 13.227 17.5201 12.487 18.3901C11.497 19.5901 9.92699 20.36 8.16699 20.36L5.55699 21.91C5.11699 22.18 4.55699 21.81 4.61699 21.3L4.86699 19.3301C3.52699 18.4001 2.66699 16.91 2.66699 15.23C2.66699 13.47 3.607 11.9201 5.047 11.0001C5.937 10.4201 7.00699 10.0901 8.16699 10.0901C11.207 10.0901 13.667 12.39 13.667 15.23Z"
          stroke="currentColor" stroke-width="1.5" stroke-linecap="round" stroke-linejoin="round"/>
</svg>
