<svg width="50" height="50" viewBox="0 0 50 50" fill="none" xmlns="http://www.w3.org/2000/svg">
<path d="M37.8906 16.0156H32.0312V13.6719H17.3828V16.0156H11.5234C10.6946 16.0156 9.89978 16.3449 9.31373 16.9309C8.72768 17.517 8.39844 18.3118 8.39844 19.1406V35.3516C8.39844 36.1804 8.72768 36.9752 9.31373 37.5613C9.89978 38.1473 10.6946 38.4766 11.5234 38.4766H37.8906C38.7194 38.4766 39.5143 38.1473 40.1003 37.5613C40.6864 36.9752 41.0156 36.1804 41.0156 35.3516V19.1406C41.0156 18.3118 40.6864 17.517 40.1003 16.9309C39.5143 16.3449 38.7194 16.0156 37.8906 16.0156ZM24.7063 36.7188C19.4844 36.7188 15.2375 32.4688 15.2375 27.2469C15.2375 22.025 19.4844 17.775 24.7063 17.775C29.9281 17.775 34.1781 22.025 34.1781 27.2469C34.1781 32.4688 29.9281 36.7156 24.7063 36.7156V36.7188ZM24.7063 20.8984C23.8725 20.8985 23.0469 21.0629 22.2766 21.382C21.5063 21.7012 20.8064 22.169 20.2169 22.7586C19.6274 23.3483 19.1598 24.0483 18.8408 24.8186C18.5218 25.589 18.3577 26.4146 18.3578 27.2484C18.3579 28.0822 18.5222 28.9078 18.8414 29.6781C19.1606 30.4484 19.6284 31.1483 20.218 31.7378C20.8077 32.3273 21.5077 32.7949 22.278 33.1139C23.0484 33.4328 23.874 33.597 24.7078 33.5969C26.3919 33.5967 28.007 32.9275 29.1977 31.7365C30.3884 30.5454 31.0572 28.9302 31.057 27.2461C31.0568 25.562 30.3876 23.9469 29.1966 22.7562C28.0056 21.5655 26.3904 20.8967 24.7063 20.8969V20.8984Z" fill="white" fill-opacity="0.5"/>
</svg>
