<svg width="298" height="140" viewBox="0 0 298 140" fill="none" xmlns="http://www.w3.org/2000/svg">
    <style type="text/css">
        path{fill:url(#MyGradient)}
    </style>
    <defs>
        <linearGradient id="MyGradient">
            <stop offset="5%" stop-color="#ffa9dd"/>
            <stop offset="95%" stop-color="#aa77fe"/>
        </linearGradient>
    </defs>
    <path fill-rule="evenodd" clip-rule="evenodd"
          d="M46.473 0.991104C46.9764 -0.330368 48.9006 -0.330368 49.404 0.991104L52.1206 8.12209C52.2789 8.53755 52.6161 8.86513 53.0438 9.01881L60.3855 11.6575C61.7459 12.1465 61.7459 14.0155 60.3855 14.5045L53.0438 17.1432C52.6161 17.297 52.2789 17.6245 52.1206 18.0399L49.404 25.171C48.9006 26.4924 46.9764 26.4924 46.473 25.171L43.7563 18.0399C43.5981 17.6245 43.2608 17.297 42.8331 17.1432L35.4915 14.5045C34.131 14.0155 34.131 12.1465 35.4915 11.6575L42.8331 9.01881C43.2608 8.86513 43.5981 8.53755 43.7563 8.12209L46.473 0.991104ZM17.5646 22.2401C18.068 20.9187 19.9922 20.9187 20.4956 22.2401L24.2674 32.1408C24.4257 32.5562 24.7629 32.8838 25.1906 33.0375L35.3836 36.7011C36.7441 37.19 36.7441 39.059 35.3836 39.548L25.1906 43.2116C24.7629 43.3653 24.4257 43.6929 24.2674 44.1083L20.4956 54.0089C19.9922 55.3304 18.068 55.3303 17.5646 54.0089L13.7928 44.1083C13.6346 43.6929 13.2973 43.3653 12.8696 43.2116L2.67657 39.548C1.31615 39.059 1.31615 37.19 2.67657 36.7011L12.8696 33.0375C13.2973 32.8838 13.6346 32.5562 13.7928 32.1408L17.5646 22.2401ZM58.7797 35.9002C58.2762 34.5788 56.3521 34.5788 55.8487 35.9002L53.9761 40.8156C53.8178 41.231 53.4806 41.5585 53.0529 41.7123L47.9924 43.5311C46.632 44.0201 46.632 45.8891 47.9924 46.3781L53.0529 48.1969C53.4806 48.3506 53.8178 48.6782 53.9761 49.0936L55.8487 54.0089C56.3521 55.3303 58.2762 55.3303 58.7797 54.0089L60.6522 49.0936C60.8105 48.6782 61.1477 48.3506 61.5754 48.1969L66.6359 46.3781C67.9964 45.8891 67.9964 44.0201 66.6359 43.5311L61.5754 41.7123C61.1477 41.5585 60.8105 41.231 60.6522 40.8156L58.7797 35.9002ZM118.811 78.416C118.707 80.31 118.649 82.1839 118.64 84.0402C121.489 77.948 130.873 71.7188 138.234 71.7188C149.109 71.7188 155.859 79.3125 155.859 91.4531V123H142.172V94.2656C142.172 87.2344 138.703 83.0625 132.469 83.0625C125.954 83.0625 119.725 88.892 119.193 95.1405C120.21 104.642 122.645 113.801 126.657 123L111.455 123C105.656 105.5 103.663 95.9397 104.656 78.0003C105.65 60.0609 111.009 42.2454 119.966 26.6703L132.102 33.6496C124.236 47.3286 119.684 62.6605 118.811 78.416ZM187.547 124.031C172.172 124.031 162.844 114.047 162.844 97.9688V97.9219C162.844 81.9375 172.266 71.7188 186.984 71.7188C201.703 71.7188 210.938 81.7031 210.938 96.8906V101.109H176.344C176.484 109.125 180.844 113.813 187.828 113.813C193.453 113.813 196.875 110.719 197.859 107.906L197.953 107.625H210.516L210.375 108.141C208.828 115.547 201.891 124.031 187.547 124.031ZM187.219 81.9375C181.594 81.9375 177.375 85.6875 176.484 92.4844H197.812C196.969 85.5469 192.891 81.9375 187.219 81.9375ZM218.016 123H231.703V94.875C231.703 87.5625 235.641 83.5313 242.391 83.5313C244.359 83.5313 246.234 83.8125 247.359 84.2813V72.2344C246.328 71.9531 244.922 71.7188 243.422 71.7188C237.562 71.7188 233.484 75.3281 231.984 81.5156H231.703V72.75H218.016V123ZM249.469 97.9688C249.469 114.047 258.797 124.031 274.172 124.031C288.516 124.031 295.453 115.547 297 108.141L297.141 107.625H284.578L284.484 107.906C283.5 110.719 280.078 113.813 274.453 113.813C267.469 113.813 263.109 109.125 262.969 101.109H297.562V96.8906C297.562 81.7031 288.328 71.7188 273.609 71.7188C258.891 71.7188 249.469 81.9375 249.469 97.9219V97.9688ZM263.109 92.4844C264 85.6875 268.219 81.9375 273.844 81.9375C279.516 81.9375 283.594 85.5469 284.438 92.4844H263.109ZM51.5156 139.406V72.75H65.2031V81.5156H65.5312C68.25 75.4219 73.7344 71.7188 80.8594 71.7188C93.6094 71.7188 101.391 81.4688 101.391 97.8281V97.875C101.391 114.188 93.6094 124.031 81.0469 124.031C73.875 124.031 68.2031 120.375 65.4844 114.422H65.2031V139.406H51.5156ZM76.3594 112.688C83.1562 112.688 87.4688 107.016 87.4688 97.875V97.8281C87.4688 88.6406 83.1562 83.0625 76.3594 83.0625C69.7031 83.0625 65.1562 88.7813 65.1562 97.875V97.9219C65.1562 106.969 69.7031 112.688 76.3594 112.688ZM0.046875 108.094C1.125 117.609 8.85938 124.031 22.7812 124.031C35.7188 124.031 44.7656 117.563 44.7656 107.719V107.672C44.7656 100.266 40.4531 96.1406 29.9531 93.9375L21.4219 92.1094C16.3594 91.0313 14.625 89.3438 14.625 86.7656V86.7188C14.625 83.4844 17.5781 81.375 22.3125 81.375C27.375 81.375 30.3281 84.0938 30.7969 87.7031L30.8438 88.0781H43.4531V87.6094C43.125 78.7969 35.6719 71.7188 22.3125 71.7188C9.51562 71.7188 1.26562 77.9063 1.26562 87.4688V87.5156C1.26562 95.0156 6.1875 99.8906 15.9375 101.953L24.4688 103.734C29.3906 104.813 31.0781 106.359 31.0781 109.031V109.078C31.0781 112.313 27.9375 114.328 22.7812 114.328C17.2969 114.328 14.3438 112.031 13.4531 108.094L13.3594 107.672H0L0.046875 108.094Z"
          fill="currentColor"
    />
</svg>
