<svg width="25" height="24" viewBox="0 0 25 24" fill="none" xmlns="http://www.w3.org/2000/svg">
    <path d="M18.333 7V17C18.333 17.62 18.313 18.17 18.243 18.66C17.953 21.29 16.713 22 13.333 22H11.333C7.95301 22 6.71301 21.29 6.42301 18.66C6.35301 18.17 6.33301 17.62 6.33301 17V7C6.33301 6.38 6.35301 5.83 6.42301 5.34C6.71301 2.71 7.95301 2 11.333 2H13.333C16.713 2 17.953 2.71 18.243 5.34C18.313 5.83 18.333 6.38 18.333 7Z"
          stroke="currentColor" stroke-width="1.5" stroke-linecap="round" stroke-linejoin="round"/>
    <path d="M6.33301 17C6.33301 17.62 6.35301 18.17 6.42301 18.66C6.28301 18.67 6.15301 18.67 6.00301 18.67H5.66301C3.00301 18.67 2.33301 18 2.33301 15.33V8.66996C2.33301 5.99996 3.00301 5.32996 5.66301 5.32996H6.00301C6.15301 5.32996 6.28301 5.32996 6.42301 5.33996C6.35301 5.82996 6.33301 6.37996 6.33301 6.99996V17Z"
          stroke="currentColor" stroke-width="1.5" stroke-linecap="round" stroke-linejoin="round"/>
    <path d="M22.3332 8.66996V15.33C22.3332 18 21.6632 18.67 19.0032 18.67H18.6632C18.5132 18.67 18.3832 18.67 18.2432 18.66C18.3132 18.17 18.3332 17.62 18.3332 17V6.99996C18.3332 6.37996 18.3132 5.82996 18.2432 5.33996C18.3832 5.32996 18.5132 5.32996 18.6632 5.32996H19.0032C21.6632 5.32996 22.3332 5.99996 22.3332 8.66996Z"
          stroke="currentColor" stroke-width="1.5" stroke-linecap="round" stroke-linejoin="round"/>
</svg>
