<svg width="32" height="32" viewBox="0 0 32 32" fill="none" xmlns="http://www.w3.org/2000/svg">
<g filter="url(#filter0_i_402_9604)">
<rect width="32" height="32" rx="6" fill="#9B0583"/>
<path d="M22.1404 25.62C21.2604 25.88 20.2204 26 19.0004 26H13.0004C11.7804 26 10.7404 25.88 9.86035 25.62C10.0804 23.02 12.7504 20.97 16.0004 20.97C19.2504 20.97 21.9204 23.02 22.1404 25.62Z" stroke="white" stroke-width="1.5" stroke-linecap="round" stroke-linejoin="round"/>
<path d="M19 6H13C8 6 6 8 6 13V19C6 22.78 7.14 24.85 9.86 25.62C10.08 23.02 12.75 20.97 16 20.97C19.25 20.97 21.92 23.02 22.14 25.62C24.86 24.85 26 22.78 26 19V13C26 8 24 6 19 6ZM16 18.17C14.02 18.17 12.42 16.56 12.42 14.58C12.42 12.6 14.02 11 16 11C17.98 11 19.58 12.6 19.58 14.58C19.58 16.56 17.98 18.17 16 18.17Z" stroke="white" stroke-width="1.5" stroke-linecap="round" stroke-linejoin="round"/>
<path d="M19.5799 14.58C19.5799 16.56 17.9799 18.17 15.9999 18.17C14.0199 18.17 12.4199 16.56 12.4199 14.58C12.4199 12.6 14.0199 11 15.9999 11C17.9799 11 19.5799 12.6 19.5799 14.58Z" stroke="white" stroke-width="1.5" stroke-linecap="round" stroke-linejoin="round"/>
</g>
<defs>
<filter id="filter0_i_402_9604" x="0" y="0" width="32" height="32" filterUnits="userSpaceOnUse" color-interpolation-filters="sRGB">
<feFlood flood-opacity="0" result="BackgroundImageFix"/>
<feBlend mode="normal" in="SourceGraphic" in2="BackgroundImageFix" result="shape"/>
<feColorMatrix in="SourceAlpha" type="matrix" values="0 0 0 0 0 0 0 0 0 0 0 0 0 0 0 0 0 0 127 0" result="hardAlpha"/>
<feOffset/>
<feGaussianBlur stdDeviation="4"/>
<feComposite in2="hardAlpha" operator="arithmetic" k2="-1" k3="1"/>
<feColorMatrix type="matrix" values="0 0 0 0 0 0 0 0 0 0 0 0 0 0 0 0 0 0 0.25 0"/>
<feBlend mode="normal" in2="shape" result="effect1_innerShadow_402_9604"/>
</filter>
</defs>
</svg>
